<svg width="561" height="310" viewBox="0 0 561 310" fill="none" xmlns="http://www.w3.org/2000/svg">
<rect width="561" height="310" fill="#E5E5E5"/>
<g clip-path="url(#clip0_0_1)" filter="url(#filter0_dd_0_1)">
<rect width="553" height="302" transform="translate(4)" fill="black"/>
<g filter="url(#filter1_d_0_1)">
<path d="M256.718 361.31C642.785 567.984 314.047 235.876 194.113 231.371C74.1782 226.867 235.85 191.469 324.541 89.1554C413.232 -13.1584 105.422 83.0167 93.2486 65.6232C81.0753 48.2297 521.052 -70.4541 293.238 -34.6444C65.424 1.16534 308.89 -74.547 408.015 -136.958C507.14 -199.37 93.2486 -55.1073 194.113 -118.542" stroke="#FAF49E" stroke-width="2"/>
</g>
<g filter="url(#filter2_d_0_1)">
<path d="M42.69 178.718C-163.984 564.785 168.124 236.047 172.629 116.113C177.133 -3.82178 212.531 157.85 314.845 246.541C417.158 335.232 320.983 27.4219 338.377 15.2486C355.77 3.07531 474.454 443.052 438.644 215.238C402.835 -12.576 478.547 230.889 540.958 330.015C603.37 429.14 459.107 15.2486 522.542 116.113" stroke="#FAF49E" stroke-width="2"/>
</g>
<g filter="url(#filter3_d_0_1)">
<path d="M98.9684 296.431C188.806 725.022 231.907 259.72 158.265 164.949C84.6232 70.1787 215.66 171.273 351.046 173.448C486.433 175.623 214.902 1.64752 220.401 -18.8581C225.901 -39.3637 599.629 221.39 425.761 69.892C251.894 -81.6057 466.389 56.2328 577.915 92.0499C689.442 127.867 312.886 -96.4621 426.314 -59.9705" stroke="#FAF49E" stroke-width="2"/>
</g>
<g filter="url(#filter4_d_0_1)">
<path d="M81.2432 18.3493C-278.175 268.509 166.979 126.376 225.442 21.5583C283.904 -83.2593 242.047 76.8614 292.944 202.335C343.841 327.809 397.891 9.88574 418.916 6.93572C439.94 3.98571 345.943 449.889 417.461 230.648C488.98 11.407 445.909 262.709 456.516 379.364C467.123 496.02 526.487 61.7462 537.216 180.416" stroke="#FAF49E" stroke-width="2"/>
</g>
</g>
<defs>
<filter id="filter0_dd_0_1" x="0" y="0" width="561" height="310" filterUnits="userSpaceOnUse" color-interpolation-filters="sRGB">
<feFlood flood-opacity="0" result="BackgroundImageFix"/>
<feColorMatrix in="SourceAlpha" type="matrix" values="0 0 0 0 0 0 0 0 0 0 0 0 0 0 0 0 0 0 127 0" result="hardAlpha"/>
<feOffset dy="4"/>
<feGaussianBlur stdDeviation="2"/>
<feComposite in2="hardAlpha" operator="out"/>
<feColorMatrix type="matrix" values="0 0 0 0 0 0 0 0 0 0 0 0 0 0 0 0 0 0 0.25 0"/>
<feBlend mode="normal" in2="BackgroundImageFix" result="effect1_dropShadow_0_1"/>
<feColorMatrix in="SourceAlpha" type="matrix" values="0 0 0 0 0 0 0 0 0 0 0 0 0 0 0 0 0 0 127 0" result="hardAlpha"/>
<feOffset dy="4"/>
<feGaussianBlur stdDeviation="2"/>
<feComposite in2="hardAlpha" operator="out"/>
<feColorMatrix type="matrix" values="0 0 0 0 0 0 0 0 0 0 0 0 0 0 0 0 0 0 0.25 0"/>
<feBlend mode="normal" in2="effect1_dropShadow_0_1" result="effect2_dropShadow_0_1"/>
<feBlend mode="normal" in="SourceGraphic" in2="effect2_dropShadow_0_1" result="shape"/>
</filter>
<filter id="filter1_d_0_1" x="88" y="-154" width="356" height="592" filterUnits="userSpaceOnUse" color-interpolation-filters="sRGB">
<feFlood flood-opacity="0" result="BackgroundImageFix"/>
<feColorMatrix in="SourceAlpha" type="matrix" values="0 0 0 0 0 0 0 0 0 0 0 0 0 0 0 0 0 0 127 0" result="hardAlpha"/>
<feOffset dy="4"/>
<feGaussianBlur stdDeviation="2"/>
<feComposite in2="hardAlpha" operator="out"/>
<feColorMatrix type="matrix" values="0 0 0 0 0 0 0 0 0 0 0 0 0 0 0 0 0 0 0.25 0"/>
<feBlend mode="normal" in2="BackgroundImageFix" result="effect1_dropShadow_0_1"/>
<feBlend mode="normal" in="SourceGraphic" in2="effect1_dropShadow_0_1" result="shape"/>
</filter>
<filter id="filter2_d_0_1" x="-29.9997" y="14" width="592" height="356" filterUnits="userSpaceOnUse" color-interpolation-filters="sRGB">
<feFlood flood-opacity="0" result="BackgroundImageFix"/>
<feColorMatrix in="SourceAlpha" type="matrix" values="0 0 0 0 0 0 0 0 0 0 0 0 0 0 0 0 0 0 127 0" result="hardAlpha"/>
<feOffset dy="4"/>
<feGaussianBlur stdDeviation="2"/>
<feComposite in2="hardAlpha" operator="out"/>
<feColorMatrix type="matrix" values="0 0 0 0 0 0 0 0 0 0 0 0 0 0 0 0 0 0 0.25 0"/>
<feBlend mode="normal" in2="BackgroundImageFix" result="effect1_dropShadow_0_1"/>
<feBlend mode="normal" in="SourceGraphic" in2="effect1_dropShadow_0_1" result="shape"/>
</filter>
<filter id="filter3_d_0_1" x="93.9897" y="-64.9999" width="509.827" height="549.005" filterUnits="userSpaceOnUse" color-interpolation-filters="sRGB">
<feFlood flood-opacity="0" result="BackgroundImageFix"/>
<feColorMatrix in="SourceAlpha" type="matrix" values="0 0 0 0 0 0 0 0 0 0 0 0 0 0 0 0 0 0 127 0" result="hardAlpha"/>
<feOffset dy="4"/>
<feGaussianBlur stdDeviation="2"/>
<feComposite in2="hardAlpha" operator="out"/>
<feColorMatrix type="matrix" values="0 0 0 0 0 0 0 0 0 0 0 0 0 0 0 0 0 0 0.25 0"/>
<feBlend mode="normal" in2="BackgroundImageFix" result="effect1_dropShadow_0_1"/>
<feBlend mode="normal" in="SourceGraphic" in2="effect1_dropShadow_0_1" result="shape"/>
</filter>
<filter id="filter4_d_0_1" x="-62.5916" y="-13.3714" width="604.804" height="421.84" filterUnits="userSpaceOnUse" color-interpolation-filters="sRGB">
<feFlood flood-opacity="0" result="BackgroundImageFix"/>
<feColorMatrix in="SourceAlpha" type="matrix" values="0 0 0 0 0 0 0 0 0 0 0 0 0 0 0 0 0 0 127 0" result="hardAlpha"/>
<feOffset dy="4"/>
<feGaussianBlur stdDeviation="2"/>
<feComposite in2="hardAlpha" operator="out"/>
<feColorMatrix type="matrix" values="0 0 0 0 0 0 0 0 0 0 0 0 0 0 0 0 0 0 0.25 0"/>
<feBlend mode="normal" in2="BackgroundImageFix" result="effect1_dropShadow_0_1"/>
<feBlend mode="normal" in="SourceGraphic" in2="effect1_dropShadow_0_1" result="shape"/>
</filter>
<clipPath id="clip0_0_1">
<rect width="553" height="302" fill="white" transform="translate(4)"/>
</clipPath>
</defs>
</svg>
