<svg width="590" height="325" viewBox="0 0 590 325" fill="none" xmlns="http://www.w3.org/2000/svg">
<rect width="590" height="325" fill="#E5E5E5"/>
<g clip-path="url(#clip0_0_1)" filter="url(#filter0_dd_0_1)">
<rect width="582" height="317" transform="translate(4)" fill="black"/>
<path d="M42.69 128.718C-163.984 514.785 168.124 186.047 172.629 66.1128C177.133 -53.8218 212.531 107.85 314.845 196.541C417.158 285.232 320.983 -22.5781 338.377 -34.7514C355.77 -46.9247 474.454 393.052 438.644 165.238C402.835 -62.576 478.547 180.889 540.958 280.015C603.37 379.14 459.107 -34.7514 522.542 66.1128" stroke="#FAF49E" stroke-width="2"/>
<path opacity="0.74" d="M42.69 178.718C-163.984 564.785 168.124 236.047 172.629 116.113C177.133 -3.82178 212.531 157.85 314.845 246.541C417.158 335.232 320.983 27.4219 338.377 15.2486C355.77 3.07531 474.454 443.052 438.644 215.238C402.835 -12.576 478.547 230.889 540.958 330.015C603.37 429.14 459.107 15.2486 522.542 116.113" stroke="#FAF49E" stroke-width="2"/>
<path opacity="0.56" d="M52.69 150.718C-153.984 536.785 178.124 208.047 182.629 88.1128C187.133 -31.8218 222.531 129.85 324.845 218.541C427.158 307.232 330.983 -0.578093 348.377 -12.7514C365.77 -24.9247 484.454 415.052 448.644 187.238C412.835 -40.576 488.547 202.889 550.958 302.015C613.37 401.14 469.107 -12.7514 532.542 88.1128" stroke="#FAF49E" stroke-width="2"/>
<path opacity="0.36" d="M52.69 118.718C-153.984 504.785 178.124 176.047 182.629 56.1128C187.133 -63.8218 222.531 97.8497 324.845 186.541C427.158 275.232 330.983 -32.5781 348.377 -44.7514C365.77 -56.9247 484.454 383.052 448.644 155.238C412.835 -72.576 488.547 170.889 550.958 270.015C613.37 369.14 469.107 -44.7514 532.542 56.1128" stroke="#FAF49E" stroke-width="2"/>
</g>
<defs>
<filter id="filter0_dd_0_1" x="0" y="0" width="590" height="325" filterUnits="userSpaceOnUse" color-interpolation-filters="sRGB">
<feFlood flood-opacity="0" result="BackgroundImageFix"/>
<feColorMatrix in="SourceAlpha" type="matrix" values="0 0 0 0 0 0 0 0 0 0 0 0 0 0 0 0 0 0 127 0" result="hardAlpha"/>
<feOffset dy="4"/>
<feGaussianBlur stdDeviation="2"/>
<feComposite in2="hardAlpha" operator="out"/>
<feColorMatrix type="matrix" values="0 0 0 0 0 0 0 0 0 0 0 0 0 0 0 0 0 0 0.25 0"/>
<feBlend mode="normal" in2="BackgroundImageFix" result="effect1_dropShadow_0_1"/>
<feColorMatrix in="SourceAlpha" type="matrix" values="0 0 0 0 0 0 0 0 0 0 0 0 0 0 0 0 0 0 127 0" result="hardAlpha"/>
<feOffset dy="4"/>
<feGaussianBlur stdDeviation="2"/>
<feComposite in2="hardAlpha" operator="out"/>
<feColorMatrix type="matrix" values="0 0 0 0 0 0 0 0 0 0 0 0 0 0 0 0 0 0 0.25 0"/>
<feBlend mode="normal" in2="effect1_dropShadow_0_1" result="effect2_dropShadow_0_1"/>
<feBlend mode="normal" in="SourceGraphic" in2="effect2_dropShadow_0_1" result="shape"/>
</filter>
<clipPath id="clip0_0_1">
<rect width="582" height="317" fill="white" transform="translate(4)"/>
</clipPath>
</defs>
</svg>
